<?xml version="1.0" encoding="utf-8"?>
<svg role="img" aria-label="Smile NOLA" xmlns="http://www.w3.org/2000/svg"
	 viewBox="840 1684 3487 1468" fill="#D4AF37">
<g>
	<path fill="#D4AF37" d="M3160.41,1934.96c-23.73-0.35-45.14-0.58-66.99,0.06c-10.29,0.3-17.4,3-21.75,8.24c-4.45,5.36-6.44,13.76-6.09,25.66
		c0.68,22.78,8.35,32.16,26.4,32.16c0.26,0,0.52,0,0.79-0.01c4.63-0.07,9.29-0.09,13.93-0.09c4.24,0,8.47,0.02,12.62,0.04
		c3.61,0.02,7.22,0.03,10.83,0.04h0c2.86,0,5.73,0.02,8.6,0.03c6.95,0.03,14.14,0.06,21.2-0.04c25.43-0.37,34.94-9.25,35.1-32.77
		C3195.21,1944.97,3185.17,1935.32,3160.41,1934.96z"/>
	<path fill="#D4AF37" d="M2404.12,1851.7c12.78-27.43,26-55.78,37.9-84.25c11.84-28.34,31.99-41.55,63.39-41.55c0.12,0,0.24,0,0.36,0
		c109.08,0.35,224.38,0.37,342.7,0.06c0.1,0,0.19,0,0.29,0c31.41,0,51.49,13.29,63.18,41.8c11.4,27.82,23.98,54.81,37.29,83.39
		c5.35,11.47,10.86,23.31,16.35,35.33l29.25,0l64.54,0c0.1,0,0.21,0,0.31,0c12.66,0,25.32-0.03,37.98-0.06
		c28.45-0.06,57.87-0.13,86.82,0.14c53.36,0.5,86.53,28.35,95.93,80.54c2.37,13.17,3.54,28.03,3.57,45.44
		c0.14,74.67,0.19,150.03,0.19,224.93c15.21-6.32,29.02-16.99,42.1-32.35c-0.02-66.84-0.16-136.77-0.49-206.7
		c-0.24-49.8-15.46-90.44-44.01-117.51c-27.79-26.35-66.89-39.1-113.05-36.86c-39.55,1.92-78.32,1.45-119.37,0.96
		c-17.95-0.22-36.52-0.44-55-0.44h-2.54l-1.05-2.31c-4.44-9.79-9.02-19.63-13.45-29.13c-9.83-21.12-20-42.95-28.87-64.8
		c-16.88-41.58-46.43-62.89-87.82-63.35c-120.47-1.33-244.16-1.33-367.63-0.02c-41.06,0.44-70.63,21.77-87.9,63.41
		c-11.73,28.29-24.65,56.73-37.14,84.22c-5.52,12.16-11.23,24.72-16.8,37.18l-0.95,2.12l-224.06,12.75h262.72
		C2393.88,1873.66,2399.08,1862.51,2404.12,1851.7z"/>
	<g>
		<path fill="#D4AF37" d="M2385.39,2198.99c6.45-159.14,137.56-286.65,297.72-286.66c40.38,0,79.58,7.96,116.51,23.65
			c35.65,15.15,67.67,36.84,95.16,64.44c27.53,27.64,49.11,59.79,64.14,95.57c12.45,29.63,19.94,60.71,22.35,92.66
			c5.63-1.19,11.24-2.12,16.83-2.81c-1.96-12.92-4.74-25.81-8.37-38.6c-36.1-127.3-113.83-207.14-231.02-237.31
			c-92.73-23.87-189.37-3.84-265.16,54.95c-73.59,57.09-117.05,142.21-120.49,235.03C2377.2,2199.78,2381.3,2199.47,2385.39,2198.99
			z"/>
		<path fill="#D4AF37" d="M2978.25,2259.75c-23.11,141.79-146.54,250.24-294.6,250.25c-0.35,0-0.69,0-1.04,0c-79.71-0.27-154.5-31.46-210.59-87.81
			c-42.1-42.31-69.99-95.1-81.25-152.55c-3.99,0.53-7.99,0.95-11.99,1.27c28.83,161.51,157.32,275.06,318.17,272.02
			c96.47-1.83,185.02-47.73,242.97-125.92c35.64-48.1,56.24-103.72,60.73-161.04C2993.04,2256.6,2985.59,2257.89,2978.25,2259.75z"
			/>
	</g>
	<g>
		<path fill="#D4AF37" d="M3288.21,2303.67l16.09,218.55l16.84-232.05C3310.6,2296.01,3299.64,2300.5,3288.21,2303.67z"/>
	</g>
	<path fill="#D4AF37" d="M3359.27,2216.06c-0.48-1.21-1.44-2.04-2.5-2.19c-1.29-0.17-2.69,0.66-3.95,2.34l-0.04,0.05
		c-28.13,36.02-60.92,54.26-100.22,55.76c-36.57,1.41-74.95-11.9-108.06-24.47c-8.04-3.02-16.21-6.21-24.11-9.31
		c-17.26-6.76-35.11-13.76-52.36-19.09c-77.96-24.02-146.28,16.9-202.83,60.09c-11.33,8.5-21.4,15.78-29.96,21.66
		c-8.47,6.05-20.13,14.38-29.62,11.53c-4.59-1.38-8.08-5.13-10.4-11.14c-6.94-17.49-3.07-47.51,0.66-76.55
		c2.08-16.16,4.05-31.43,3.72-42.39c-1.02-14.75-7.03-26.09-16.93-31.93c-8.12-4.79-18.15-5.25-26.85-1.2
		c-17.72,8.01-24.3,26.33-29.53,44.4c-2.16,8.22-4.67,20.03-7.1,31.45c-2.67,12.56-5.19,24.43-7.14,30.99l-0.03,0.1
		c-0.69,2.07-1.98,5.92-5.3,5.38c-3.47-0.56-3.52-4.94-3.52-8.51c-2.26-24.97-2.29-53.21-0.09-81.76
		c-6.81-8.1-14.48-11.86-20.67-10.04c-6.82,1.99-11.55,10.83-12.99,24.25l-0.27,2.49l-2.48,0.28c-0.63,0.07-1.26,0.23-1.84,0.49
		c-12.6,5.33-40.76,20.61-66.79,40.91l-2.11,1.64l-1.94-1.84c-16.24-15.34-31.27-32.57-31.27-54.59l0.01-0.18
		c0.45-7.68,1.38-16.53,4.83-23.99c3.21-8.23,11.86-14.92,20.6-15.92c6.79-0.79,12.66,1.91,16.51,7.59
		c7.41,10.5,4.04,25.57,2.24,31.56c-0.8,2.59-0.48,4.81,0.88,6.12c1.09,1.05,2.7,1.34,4.32,0.78c3.75-1.3,6.58-6.43,7.56-13.72
		c1.57-13.38-3.81-25.54-14.78-33.31c-18.15-13.16-43.55-8.1-57.64,4.38c-31.5,28-69.21,58.86-110.08,75.49
		c-40.71,16.56-80.75,18.31-126.01,5.51c-21.1-5.8-41.65-12.71-61.53-19.39c-38.82-13.05-76.07-25.55-111.28-27.47
		c0.33,3.24,1.48,6.37,2.98,9.35c34.74,3.22,70.67,17.63,105.7,31.69c19.4,7.79,39.47,15.84,59,21.86
		c75.14,23.96,157.32-2.14,219.88-69.83l7.01-7.59l-1.65,10.2c-5.21,32.14,21.12,57.37,42.27,77.64l2.73,2.62l-2.29,2.25
		c-33.64,33.09-44.25,62.76-31.53,88.19c11.11,22.7,35.74,31.45,62.78,22.31c16.11-5.44,28.9-18.16,35.09-34.91
		c6.48-17.52,4.62-36.94-5.1-53.27c-7.54-11.98-19.99-23.51-32.03-34.65l-2.65-2.46l2.82-2.26c24.91-19.93,50.82-35.01,60.8-40.57
		l4.89-2.72l-0.26,5.59c-1.68,36,1.98,65.3,4.31,79.57c3.19,17.56,14.17,23.39,23.34,22.97c7.45-0.34,13.64-4.68,14.1-9.89
		l0.09-0.51c24.71-94.64,26.71-101.31,30.98-109.85c5.27-10.54,10.55-11.86,14.07-11.12c5.96,1.27,9.41,9.03,9.73,16.04
		c0.24,9.39-0.78,21.16-1.86,33.62c-3.21,37.09-7.21,83.26,17.62,102.21c13.74,10.87,32.8,7.53,58.3-10.18l33.48-23.85
		c62.63-45.81,116.27-70.09,189.92-49.58c20.8,5.76,41.06,12.57,60.66,19.15c88.17,29.62,164.32,55.2,233.98-31.42
		C3359.45,2220.6,3360.07,2218.09,3359.27,2216.06z M2606.64,2283.43c7.41,12.18,9.83,27.69,6.46,41.48
		c-2.59,10.6-8.36,19.06-16.24,23.83l-0.03,0.02c-6.47,3.83-12.9,5.76-18.96,5.76c-2.81,0-5.54-0.42-8.16-1.26
		c-8.31-2.67-15.25-9.5-19.55-19.24l-0.03-0.08c-9.35-22.94,0.3-49.24,28.66-78.17l2.15-2.19l2.22,2.11
		C2593.86,2265.86,2601.54,2274.93,2606.64,2283.43z"/>
	<path fill="#D4AF37" d="M2190.31,2118.36c-3.69-6.95-10.81-11.03-21.16-12.12l-2.55-0.27l1.4-2.16c4.97-7.67,10.43-20.6,10.85-33.85
		c0.95-16.99-7.77-31.47-22.23-36.93c-12.81-4.84-26.26-0.85-35.11,10.4c-5.4,7.16-9.76,10.48-14.1,10.74
		c-5.08,0.31-9.4-3.69-13.75-8.17c-10.04-10.81-23.15-15.99-35.08-13.86c-10.43,1.86-18.83,9.26-23.67,20.85
		c-3.89,10.06-3.72,21.88,0.59,39.45l0.72,2.93l-2.82-1.08c-18.25-7-42.51,2.39-52.98,20.51c-5.81,10.06-6.63,21.61-2.32,32.53
		c5.86,14.86,20.27,26.44,40.56,32.6l3.18,0.97l-2.76,1.85c-11.32,7.59-19.67,19.43-21.79,30.91c-1.53,9.2,0.76,18.06,6.45,24.94
		c6.09,7.38,15.31,11.59,25.94,11.85c12.03,0.49,21.59-4.28,33.79-11.08l2.16-1.2l0.18,2.46c0.84,11.25,9.33,20.18,20.65,21.7
		c14.51,2.31,25.59-9.16,31.12-20.66l1.21-2.52l1.53,2.33c5.8,8.85,19.62,11.62,29.68,9.73c7.06-1.43,12.82-5.38,16.2-11.1
		c3.44-5.84,4.08-13.02,1.8-20.24c-3.99-11.53-14.15-23.19-22.56-32.05l-0.32-0.34l-2.25-12.51l2.24-0.1l-5.5-2.69l11.56,2.2
		c0.31,0.06,0.65,0.09,1,0.12l0.32,0.03l6.6-0.3c12.11-2.47,23.12-13.78,28.25-23.27
		C2193.62,2139.24,2194.76,2126.74,2190.31,2118.36z M2040.56,2053.21c4.05-7.8,10.24-12.65,17.9-14.07
		c9.83-1.82,21.11,2.12,30.94,10.82c12.17,10.85,18.23,14.95,34.38-1.66c7.98-9.06,17.24-12.68,26.02-10.13
		c10.64,3.09,18.77,14.64,21.23,30.16c1.62,10.11-1.43,22.38-9.61,38.6l-0.31,0.62l-0.67,0.19c-10.31,2.88-18.95,8.13-25.68,15.59
		l-1.38,1.52l-1.12-1.72c-4.95-7.64-12.55-15.47-21.97-22.65c-17.66-13.61-39.86-23.38-56.06-30.51l-0.08-0.04
		c-1.77,3.2,0.87,23.71,5.54,42.53l2.06,8.28l-4.88-7c-3.05-4.37-10.07-10.63-15.67-14.89l-0.51-0.39l-0.1-0.64
		c-0.37-2.48-0.82-5.03-1.25-7.5C2037.15,2077.86,2034.9,2064.97,2040.56,2053.21z M2067.34,2176.89l0.42,0.12
		c22.48,6.18,40.89,6.64,54.74,1.35l9.65-3.69l-8.11,6.4c-11.81,9.31-22.59,13.57-36.06,14.24c-3.74,0.2-7.2,0.26-10.35,0.2
		c-7.16-0.14-12.8-0.94-16.83-2.4l-0.01,0c-5.35-1.96-7.9-4.23-7.79-6.94c0.17-4.4,7.66-7.41,13.92-9.16L2067.34,2176.89z
		 M2040.5,2160.23c-12.01-5.84-17.66-11.7-16.8-17.43c1.55-10.33,23.16-14.8,32.39-16.24c27.62-3.77,51.54,11.24,71.1,44.61
		l0.85,1.44l-1.49,0.76c-7.73,3.94-16.17,5.49-25.04,5.31C2082.36,2178.31,2061.17,2169.92,2040.5,2160.23z M2132.02,2171.99
		l-1.69-2.82c-16.5-27.55-36.58-42.67-63.19-47.57l-0.93-0.17l-0.95-3.02c-2.88-5.92-4.26-15.78-5.72-26.21
		c-0.55-3.97-1.13-8.07-1.8-12.02l-0.48-2.86l4.27,1.84c12.47,5.38,29.56,12.76,44.18,24.74c18.92,15.06,30.11,34.09,30.7,52.21
		c0.05,3.58-1.58,8.28-3.25,12.79L2132.02,2171.99z M1984.35,2145.54c-3.5-9.93-2.35-20.17,3.25-28.84
		c6.9-10.97,18.23-17.51,31.1-17.97c14.82-0.52,29.21,6.76,38.51,19.47l1.74,2.38l-2.94,0.13c-18.25,0.81-34.3,9.23-37.33,19.58
		c-2,6.8,1.85,13.85,11.11,20.4l0.09,0.07c4.08,3.37,9.03,5.32,14.77,7.58c1.27,0.5,2.57,1.01,3.88,1.55l7.22,2.96l-7.8,0.08
		c-8.09,0.08-15.33,2.9-21.94,5.94l-0.56,0.26l-0.59-0.19C2003.91,2172.04,1989.52,2160.18,1984.35,2145.54z M2029.68,2242.85
		c-0.1,0-0.2,0-0.29-0.01c-0.14,0-0.27,0-0.41-0.01c-8.21-0.16-15.16-3.05-19.6-8.16c-4.18-4.8-5.86-11.29-4.88-18.79
		c1.3-10.52,8.29-21.24,19.18-29.41c10.65-8,23.27-12.32,34.59-11.88l0.03,3.15c-4.84,0.29-8.37,3.07-8.99,7.08
		c-0.56,3.59,1.37,8.41,8.5,11.19c7.32,2.99,17.94,4.34,27.74,3.51c15.39-1.19,29.5-7.26,36.1-12.39l11.7-9.1l-9.53,11.36
		c-7.36,8.78-34.11,25.95-42.13,31.01c-2.1,1.33-4.18,2.69-6.39,4.13C2061.94,2233.28,2046.8,2243.18,2029.68,2242.85z
		 M2148.77,2201.2c4.64,6.22,9.44,12.66,11.66,19.68c1.94,6.14,1.5,12.47-1.17,16.95c-2.16,3.62-5.72,5.99-10.3,6.87
		c-7.66,1.32-17.29-2.04-23.45-8.17l-0.15-0.17c-1.79-2.38-5.96-5.44-9.62-4.78c-2.57,0.46-4.49,2.77-5.71,6.85l-0.06,0.17
		c-3.5,8.22-12.21,16.88-23.15,16.66c-0.12,0-0.24-0.01-0.36-0.01l-0.02,0c-4.32-0.23-8.29-2.23-11.18-5.63
		c-3.25-3.83-4.77-9.12-4.16-14.49l0.08-0.72l15-10.21c17.7-12.46,36.03-26.18,48.32-44.71l2.29-3.46l0.58,4.11
		C2138.4,2187.3,2143.44,2194.05,2148.77,2201.2z M2182.23,2147.22c-6.17,13.24-20.52,25.07-35.49,24.77
		c-1.83-0.04-3.67-0.25-5.5-0.67l-0.38-0.09l-0.3-0.25c-2.91-2.48-2.36-5.39-1.44-10.21l0.23-1.21c2.42-10.83,1.28-20.93-3.38-30.08
		l-0.65-1.27l1.2-0.77c3.1-1.99,5.85-4.4,8.51-6.72c6.57-5.75,12.78-11.19,22.86-9.4c6.73,0.43,11.92,3.39,15,8.57
		C2187.08,2126.91,2186.83,2137.38,2182.23,2147.22z"/>
	<path fill="#D4AF37" d="M2254.11,2219.05l14.44,0.44l-13.74-4.47c-1.72-0.56-3.46-1.12-5.23-1.69c6.61,0.11,13.21,0.61,19.41,2.42
		c2.98,0.87,7.04,2.49,7.25,6.11c0.03,0.49,0.01,0.98-0.06,1.47c-0.64-0.25-1.29-0.51-1.94-0.76l-1.28-0.5l-0.96,1
		c-0.29,0.31-0.68,0.59-2.06,0.61c-10.76,1.3-16.44,12.35-22.44,24.05c-7.42,14.46-15.83,30.85-34.93,33.3
		c-21.13,2.77-24.57,3.22-37.45,16.06c-1.67,0.34-1.88-0.13-2.35-1.1c-0.65-2.23-0.04-4.28,0.66-6.64c0.55-1.83,1.16-3.9,1.12-6.31
		c-0.39-22.13,4.44-37.85,14.78-48.07C2201.47,2222.97,2221.45,2218.07,2254.11,2219.05z M2178.08,2280.09
		c-0.06,1.59-0.54,3.51-1.05,5.53c-0.27,1.06-0.53,2.11-0.74,3.15l-1.39,6.88l4.9-5.03c9.36-9.61,13.38-10.17,25.31-11.81
		c1.83-0.25,3.82-0.53,6.03-0.87c17.58-1.94,29.58-23.53,38.05-42.12l0.84-1.85l-1.84-0.87c-1.65-0.78-2.15-1.02-34.8,21.1
		c9.76-9.38,23.1-21.02,27.28-21.75l13.22-2.29l-13.3-1.79c-19.53-2.63-35.79,1.24-47.01,11.21
		C2183.17,2248.8,2177.81,2262.82,2178.08,2280.09z"/>
	<path fill="#D4AF37" d="M3149.1,2262.59l14.44,0.44l-13.74-4.47c-1.72-0.56-3.46-1.12-5.23-1.69c6.61,0.11,13.21,0.61,19.41,2.42
		c2.98,0.87,7.04,2.49,7.25,6.11c0.03,0.49,0.01,0.98-0.06,1.47c-0.64-0.25-1.29-0.51-1.94-0.76l-1.28-0.5l-0.96,1
		c-0.29,0.31-0.68,0.58-2.06,0.61c-10.76,1.3-16.44,12.35-22.44,24.05c-7.42,14.46-15.83,30.85-34.93,33.3
		c-21.13,2.77-24.57,3.22-37.45,16.06c-1.67,0.35-1.88-0.13-2.35-1.1c-0.65-2.23-0.04-4.28,0.66-6.64c0.55-1.83,1.16-3.9,1.12-6.31
		c-0.39-22.13,4.44-37.85,14.78-48.07C3096.46,2266.51,3116.44,2261.6,3149.1,2262.59z M3073.07,2323.62
		c-0.06,1.59-0.54,3.5-1.05,5.53c-0.27,1.06-0.53,2.11-0.74,3.15l-1.39,6.88l4.9-5.03c9.36-9.61,13.38-10.17,25.31-11.81
		c1.83-0.25,3.82-0.53,6.03-0.87c17.58-1.94,29.58-23.53,38.05-42.12l0.84-1.85l-1.84-0.87c-1.64-0.78-2.15-1.02-34.8,21.1
		c9.76-9.38,23.1-21.03,27.28-21.75l13.22-2.29l-13.3-1.79c-19.54-2.63-35.8,1.24-47.01,11.21
		C3078.16,2292.33,3072.8,2306.35,3073.07,2323.62z"/>
	<path fill="#D4AF37" d="M2320.62,2224.47c-3.9-1.14-7.65-2.74-11.39-4.37l-3.62-2.89c-33.83-27-37.53-52.97-12.39-86.83
		c1.44-1.93,2.14-3.98,2.76-5.79c0.8-2.33,1.49-4.35,3.58-5.97c0.67-0.35,1.13-0.59,2.28,0.64c3.06,17.93,5.6,20.29,21.21,34.79
		c14.29,13.22,11.61,31.54,9.24,47.7c-1.28,8.71-2.48,16.94-0.86,23.49l0.08,0.33C2327.88,2225.8,2324.25,2225.53,2320.62,2224.47z
		 M2324.3,2213.78l2,0.35l0.39-2c3.87-20.06,6.6-44.61-6.66-56.44c-1.55-1.5-3.01-2.88-4.35-4.15c-8.77-8.26-11.72-11.04-13.78-24.3
		l-1.07-6.92l-2.85,6.39c-0.44,0.98-0.84,2-1.24,3.03c-0.76,1.93-1.48,3.76-2.4,5.17c-10.25,13.93-13.99,28.59-10.76,42.32
		c3.44,14.64,14.44,27.08,31.81,36l11.59,5.95l-9.18-9.25c-2.99-3.01-7.11-20.24-9.63-33.54
		C2321.96,2213.36,2322.5,2213.46,2324.3,2213.78z"/>
	<path fill="#D4AF37" d="M3245.33,2273.11c-3.94-0.98-7.75-2.44-11.56-3.93l-3.73-2.75c-34.85-25.68-39.55-51.48-15.74-86.28
		c1.37-1.99,1.98-4.06,2.53-5.89c0.71-2.36,1.32-4.41,3.35-6.1c0.66-0.37,1.1-0.64,2.3,0.55c3.75,17.8,6.38,20.06,22.53,33.94
		c14.79,12.66,12.81,31.07,11.07,47.31c-0.94,8.76-1.83,17.02,0.05,23.51l0.09,0.33C3252.64,2274.16,3249,2274.03,3245.33,2273.11z
		 M3248.59,2262.29l2.02,0.28l0.31-2.01c3.09-20.2,4.88-44.83-8.83-56.14c-1.6-1.44-3.12-2.76-4.51-3.97
		c-9.08-7.91-12.14-10.58-14.71-23.75l-1.34-6.87l-2.6,6.5c-0.4,0.99-0.76,2.03-1.12,3.08c-0.68,1.96-1.33,3.81-2.2,5.26
		c-9.7,14.31-12.88,29.11-9.12,42.7c4.01,14.49,15.48,26.51,33.17,34.75l11.81,5.5l-9.53-8.89c-3.1-2.9-7.88-19.95-10.92-33.14
		C3246.24,2261.96,3246.79,2262.04,3248.59,2262.29z"/>
</g>
<g>
	<path fill="#D4AF37" d="M1715.2,2908.97c0-19.47,24.73-59.98,24.73-64.19c-7.89,0-98.91,78.39-115.75,78.39c-7.89,0-14.21-6.31-14.21-12.63
		c0-14.21,14.21-36.3,25.25-50.51c9.47-12.63,24.2-35.25,35.25-35.25c3.16,0,9.47,3.16,9.47,9.47c0,5.79-25.78,36.3-25.78,39.99
		c57.35-35.78,81.02-64.19,99.97-64.19c6.31,0,15.78,7.89,15.78,17.36c0,17.36-16.84,48.93-16.84,53.67
		c0,0,99.44-72.61,109.96-72.61c4.74,0,17.36,7.89,17.36,18.94c0,4.73-19.47,29.46-19.47,47.88c0,10.52,6.84,18.94,29.99,18.94
		c33.15,0,119.96-54.72,119.96-54.72c4.74,0,4.74,4.74,4.74,9.47c0,21.57-96.81,66.29-131.01,66.29c-35.78,0-46.3-17.89-46.3-36.83
		c0-15.26,6.84-31.04,12.63-37.88c-38.41,22.62-101.02,76.29-118.38,82.6C1725.2,2923.17,1715.2,2920.02,1715.2,2908.97z"/>
	<path fill="#D4AF37" d="M1989.31,2887.92c0-19.47,7.37-35.78,21.05-49.46c4.74-7.89,18.42-20.52,32.62-20.52c6.31,0,14.73,3.68,14.73,14.73
		c0,11.05-23.68,21.05-34.73,27.36c0,0-8.42,5.79-8.42,27.36c0,3.68,4.74,11.57,16.31,11.57c45.25,0,128.38-42.09,156.79-59.45
		c3.16,0,4.74,3.16,4.74,6.31c0,6.31-1.58,12.63-4.74,14.21c-31.57,22.1-107.33,60.51-165.21,60.51
		C1997.21,2920.54,1989.31,2899.5,1989.31,2887.92z M2077.71,2771.12c0-5.79,4.74-8.42,10-8.42c7.37,0,16.84,5.79,16.84,17.36
		c0,6.84-6.84,8.94-10,8.94C2088.75,2789.01,2077.71,2779.01,2077.71,2771.12z"/>
	<path fill="#D4AF37" d="M2384.97,2853.72c0,7.89-107.33,89.97-156.26,89.97c-35.78,0-52.61-27.36-52.61-49.46
		c0-105.23,192.04-371.98,265.17-371.98c15.26,0,24.73,16.31,24.73,31.04c0,82.08-215.72,279.38-256.75,302.53
		c0,0-5.79,11.57-5.79,30.52c0,10.52,7.89,30.52,26.83,30.52c48.93,0,132.59-69.45,146.79-77.34
		C2383.39,2839.52,2384.97,2845.83,2384.97,2853.72z M2218.71,2819c19.99-4.73,223.61-203.09,223.61-257.28
		c0-8.42-4.21-14.21-10-14.21C2386.02,2547.51,2248.7,2740.6,2218.71,2819z"/>
	<path fill="#D4AF37" d="M2560.7,2862.14c-0.53,0-98.39,78.39-174.15,78.39c-35.25,0-53.67-19.47-53.67-39.46c0-42.09,73.66-89.44,110.49-89.44
		c10.52,0,24.2,5.26,24.2,19.99c0,29.99-48.93,48.4-80.5,52.61c-19.47,1.58-25.78,12.63-25.78,17.36c0,6.84,4.21,13.15,35.78,13.15
		c63.66,0,158.89-74.71,163.63-74.71c3.16,0,5.26,1.58,5.26,6.84v1.58C2565.96,2855.83,2562.8,2859.51,2560.7,2862.14z
		 M2382.86,2862.67c12.1-0.53,55.77-15.78,55.77-22.62c0-2.63-1.58-3.68-4.74-3.68C2426.01,2836.36,2382.86,2856.35,2382.86,2862.67
		z"/>
	<path fill="#D4AF37" d="M1730.7,2298.47c-23.22-15.58-49.12-15.29-71.97-15.03c-2.35,0.03-4.57,0.05-6.81,0.06
		c-64.55,0.27-130.98,5.65-197.44,15.98c-62.89,9.78-127.91,24.33-193.27,43.24c-37.59,10.88-67.88,21.59-95.33,33.73
		c-33.36,14.75-61.94,31.41-87.38,50.93c-19.03,14.61-33.72,30.08-43.64,45.98c-9.84,15.76-15.06,32.04-15.53,48.39
		c-0.46,16.15,3.71,32.45,12.41,48.46c8.8,16.19,22.28,32.2,40.09,47.56c19.17,16.55,40.81,30.87,61.74,44.71
		c9.08,6.01,18.48,12.22,27.54,18.54c7.22,5.03,14.42,9.81,22.75,15.35c4,2.66,8.14,5.41,12.6,8.4c-12.07,8-23.86,15.66-35.25,23.07
		c-24.47,15.91-47.58,30.93-69.99,47.01c-5.03,3.61-10.06,7.21-15.1,10.81c-35.79,25.59-72.79,52.05-106.7,80.89
		c-38.04,32.36-68.02,64.32-91.65,97.72c-14.37,20.31-24.97,40.14-31.5,58.93c-7.27,20.9-8.03,39.21-2.28,54.42
		c5.86,15.49,18.64,28.15,37.97,37.64c30.97,15.2,62.69,25.16,91.71,28.82c26.68,3.36,53.5,5.58,80.14,6.64
		c14.71,0.58,29.36,0.81,43.91,0.68c40.68-0.37,81.66-3.54,121.78-9.43c39.92-5.86,80.1-14.58,119.41-25.9
		c39.13-11.27,78.47-25.44,116.93-42.1c23.13-10.02,46.35-24.86,67.15-42.91c27.15-23.55,42.36-51.47,43.99-80.73
		c1.65-29.5-10.54-59.27-35.25-86.08c-17.2-18.66-37.45-35.14-58.58-47.64c-22.81-13.5-47.27-24.77-70.92-35.68
		c-23.94-11.04-48.7-22.45-71.76-36.17c-11.83-7.04-43.56-25.38-78.97-44.37c-0.98-0.52-1.58-1.5-1.62-2.61
		c-0.04-1.11,0.49-2.12,1.43-2.71l12.66-8.01c1.46-0.89,2.43-2.34,2.67-3.96c0.68-4.6-0.84-8.5-4.16-10.69
		c-3.01-1.99-6.94-2.06-10.02-0.17l-20.92,13.03c-3.23,2.01-7.32,2.13-10.68,0.3c-59.93-32.54-116.59-70.46-138.18-85.97
		c-6.02-4.33-10.96-10.41-15.73-16.29c-0.54-0.67-1.08-1.33-1.62-1.99c-35.48-43.43-33.83-82.45,5.03-119.29
		c20.83-19.74,44.6-36.24,68.75-47.71c52.47-24.92,106.62-45.38,162.82-61.48c0.54-0.15,1.08-0.3,1.61-0.46
		c4.05-1.15,8.12-2.28,12.19-3.39c1.77-0.48,3.53-0.95,5.3-1.42c2.7-0.72,5.41-1.43,8.12-2.13c3.04-0.78,6.07-1.55,9.11-2.31
		c1.71-0.43,3.41-0.85,5.12-1.26c3.88-0.95,7.76-1.87,11.64-2.78c1.11-0.26,2.22-0.51,3.33-0.77c4.3-0.99,8.6-1.95,12.91-2.88
		c0.92-0.2,1.84-0.4,2.76-0.59c4.29-0.92,8.59-1.81,12.89-2.68c1.17-0.24,2.34-0.47,3.51-0.7c3.86-0.77,7.73-1.52,11.6-2.25
		c1.86-0.35,3.72-0.7,5.59-1.04c3.02-0.55,6.04-1.1,9.07-1.63c3.01-0.53,6.03-1.05,9.05-1.55c1.77-0.3,3.54-0.59,5.32-0.88
		c4.63-0.75,9.27-1.49,13.93-2.19c0.1-0.01,0.19-0.03,0.29-0.04c65.41-9.79,133.65-14.44,205.23-14.05c7.63,0.04,30.94,1.78,33.81,2
		c-38.93,35.56-78.65,72.03-117.07,107.3c-32.99,30.28-64.15,58.89-94.74,86.88c-2.16,1.97-4.47,3.92-6.71,5.81
		c-6.39,5.39-13.01,10.95-16.98,17.88c-0.64,1.11-1.09,2.35-1.4,3.8c-1.27,6.06,0.88,12.07,5.75,16.08c4.85,4,11.41,4.99,17.11,2.59
		c0.09-0.04,0.18-0.08,0.27-0.12c4.25-1.86,7.72-5.66,11.08-9.33c1.45-1.59,2.96-3.24,4.5-4.7c16.11-15.26,32.23-30.52,48.35-45.77
		c57.43-54.36,116.81-110.57,175.08-166l21.6-19.58c0.91-0.82,1.38-1.99,1.29-3.22C1732.36,2300.26,1731.72,2299.16,1730.7,2298.47z
		 M1270.15,3103.88c-2.34,0.52-4.69,1.02-7.03,1.52c-2.02,0.43-4.03,0.88-6.05,1.3c-1.24,0.26-2.49,0.5-3.73,0.75
		c-3.08,0.63-6.17,1.25-9.26,1.85c-0.49,0.1-0.99,0.18-1.49,0.28c-3.8,0.72-7.61,1.43-11.43,2.11c-0.11,0.02-0.23,0.04-0.34,0.06
		c-4.15,0.73-8.3,1.44-12.47,2.12c-0.16,0.03-0.33,0.05-0.49,0.08c-4.07,0.66-8.14,1.3-12.23,1.9c-0.65,0.1-1.3,0.18-1.94,0.28
		c-3.56,0.52-7.12,1.03-10.69,1.51c-1.6,0.22-3.21,0.41-4.81,0.62c-2.58,0.33-5.15,0.67-7.73,0.98c-3.05,0.37-6.12,0.72-9.18,1.06
		c-1.1,0.12-2.2,0.25-3.3,0.37c-52.26,5.64-106.78,7.23-164.56,4.95c-0.88-0.03-1.78-0.07-2.66-0.11
		c-5.55-1.25-12.17-2.5-19.83-3.95c-20.67-3.9-46.39-8.76-71.26-17.33c-24.99-8.6-40.72-21.35-46.77-37.88
		c-5.97-16.3-2.3-35.79,10.89-57.94c21.55-36.17,48.55-70.15,78.06-98.26c64.83-61.74,141.38-120.24,234-178.86
		c13.17-8.33,24.69-12.24,36.36-11.78c9.32,0.37,18.73,3.52,29.14,9.42c30.45,17.27,61.8,34.16,92.11,50.49
		c36.51,19.67,74.26,40.01,110.72,61.16c20.19,11.71,40.52,29.1,60.43,51.68c31.04,35.21,29.64,75.38-3.65,104.83
		c-29.53,26.13-62.35,47.05-94.9,60.5c-47.12,19.47-94.81,34.69-144.06,45.82C1271.36,3103.6,1270.75,3103.74,1270.15,3103.88z"/>
</g>
<g>
	<path fill="#D4AF37" d="M3456.94,2973.68c-11.57,0-22.1-8.94-22.1-22.62c0-12.63,102.6-449.32,102.6-449.32l-1.05-1.58c0,0-56.3,68.92-151,210.45
		c-198.88,295.16-305.75,390.87-379.41,390.87c-80.5,0-371.45-104.17-400.39-132.06c-7.37-6.84-11.05-13.68-11.05-20.52
		c0-6.31,3.16-12.63,10.52-18.94c58.4-51.56,499.83-56.3,542.97-78.39c2.63-1.05,5.26-1.58,7.37-1.58c6.84,0,12.1,6.84,12.1,13.68
		c0,6.31-4.21,13.15-16.31,15.26c-86.81,16.84-522.45,37.36-522.45,72.61c9.47,16.84,304.11,120.49,383.03,120.49
		c119.43,0,302.07-313.53,492-578.17c37.88-52.61,54.72-76.82,59.98-91.55c24.2-64.19,37.88-95.76,43.67-99.44
		c2.63-2.1,5.26-2.63,7.37-2.63c6.31,0,11.05,4.73,11.05,12.1c0,3.68-16.84,55.77-36.83,115.22c0,0-116.8,461.95-116.8,494.57
		c23.68-0.53,256.75-415.65,269.91-436.17c95.76-147.84,157.84-263.59,339.36-263.59c13.15,0,18.94,5.79,18.94,11.57
		s-5.26,11.57-13.68,12.1c-165.73,11.05-204.14,68.4-302,219.92C3759.47,2504.89,3504.29,2973.68,3456.94,2973.68z"/>
	<path fill="#D4AF37" d="M4066.4,2803.74c0,7.89-107.33,89.97-156.26,89.97c-35.78,0-52.61-27.36-52.61-49.46c0-105.23,192.04-371.98,265.17-371.98
		c15.26,0,24.73,16.31,24.73,31.04c0,82.08-215.72,279.38-256.75,302.53c0,0-5.79,11.57-5.79,30.52c0,10.52,7.89,30.52,26.83,30.52
		c48.93,0,132.59-69.45,146.79-77.34C4064.82,2789.53,4066.4,2795.84,4066.4,2803.74z M3900.14,2769.01
		c19.99-4.73,223.61-203.09,223.61-257.28c0-8.42-4.21-14.21-10-14.21C4067.45,2497.52,3930.13,2690.62,3900.14,2769.01z"/>
	<path fill="#D4AF37" d="M4004.84,2849.51c0-41.04,89.97-88.39,134.16-88.39c17.36,0,22.1,8.42,22.1,16.31c0,6.31-3.68,12.1-6.31,12.1l-2.1,19.47
		c0,14.21,4.21,31.04,24.2,31.04c42.62,0,137.32-50.51,137.32-50.51c3.16,0,12.63,9.47,12.63,14.21
		c0,6.31-107.33,59.98-151.53,59.98c-41.56,0-44.2-36.83-44.2-45.77v-1.58c-23.68,18.94-59.98,63.14-101.02,63.14
		C4012.73,2879.5,4004.84,2863.71,4004.84,2849.51z M4127.43,2790.06h-0.53c-28.94,0-98.39,28.94-98.39,59.98
		c0,2.63,3.68,5.26,8.42,5.26C4060.08,2854.24,4113.22,2802.68,4127.43,2790.06z"/>
	<path fill="#D4AF37" d="M3884.62,2781.43c-4.73,2.68-9.66,5.25-14.65,7.65c-12.45,5.98-26.28,10.22-41.11,12.61l-2.78,0.45l0.78-2.41
		c3.61-11.2,5.58-21.6,5.84-30.91c0.25-9.35-0.4-17.85-1.94-25.28c-3.06-13.8-9.37-24.64-18.76-32.2
		c-9.38-7.54-20.43-11.84-32.85-12.76c-1.68-0.12-3.4-0.19-5.12-0.19c-10.89,0-22.11,2.52-33.36,7.5
		c-13.07,5.79-24.64,15.3-34.38,28.27c-10.37,12.64-18.38,27.69-23.81,44.73c-5.44,17.07-7.8,33.66-7.03,49.29
		c0.77,15.59,4.68,29.61,11.63,41.68c6.82,11.86,17.44,19.48,31.57,22.67c4.16,1.02,8.31,1.54,12.43,1.54
		c6.87,0,13.65-1.43,20.27-4.27c10.77-4.62,20.81-11.21,29.84-19.59c9.07-8.43,17.08-17.67,23.81-27.47
		c6.77-9.88,12.03-18.67,15.65-26.12l0.4-0.83l1.01-0.1c19.45-1.99,39.44-7.95,59.43-17.71l0.09-0.04l0.04-0.09
		c2.2-5.37,3.35-10.82,3.41-16.18l0-0.43L3884.62,2781.43z M3747.71,2770.86c-2.33-5.13-6.93-17.26-7.46-21.67
		c-1.63-10.8,0.61-19.67,6.68-26.39c6.01-6.67,13.39-10.8,21.92-12.29c1.97-0.34,3.95-0.52,5.93-0.52c6.61,0,13.24,1.92,19.79,5.72
		c8.63,5.03,17.27,20.71,19.93,32.21c1.07,4.36,1.61,11.29,1.61,20.58c0,9.31-1.88,20.33-5.58,32.76l-0.33,1.11l-1.29,0.05
		c-1.53,0.06-3.07,0.1-4.58,0.1c-9.83,0-18.37-1.39-25.37-4.14c-8.07-3.15-14.76-7.22-19.88-12.1
		C3753.98,2781.44,3750.15,2776.25,3747.71,2770.86z M3803.78,2815.66l-1.25,2.25c-3.66,6.61-7.66,13.22-11.88,19.66
		c-4.26,6.47-8.97,12.3-14,17.32c-5.1,5.08-10.53,9.25-16.14,12.38c-5.76,3.22-11.81,4.86-17.99,4.86
		c-15.66,0-29.93-4.68-34.7-11.39c-4.86-6.82-7.74-15.44-8.54-25.62c-0.8-10.07,0.28-21.34,3.19-33.51
		c2.89-12.11,7.03-24.04,12.3-35.46l11.01-19.77l4.38,19.96c3.07,10.62,8.51,19.98,16.17,27.81c7.64,7.82,18.78,14.12,33.12,18.75
		c3.56,0.92,7.05,1.62,10.35,2.07c3.28,0.46,7.04,0.69,11.16,0.69H3803.78z"/>
</g>
</svg>
